<svg id="logo-highcharts" xmlns="http://www.w3.org/2000/svg" width="444" height="125" viewBox="0 0 444 125"><g id="symbol" transform="translate(30 30)" stroke-width="0" stroke="#f0f0f0" stroke-linejoin="round"><path fill="#8087E8" id="svg_2" d="M41.539 0L30.315 26.21 15.567 60.651l34.292-14.486 18.164-7.672z"/><path fill="#30426B" id="svg_3" d="M47.258 31.73l2.602 14.435 18.164-7.672z"/><path fill="#6699A1" id="svg_4" d="M41.539 0l5.719 31.731 20.765 6.762z"/><path fill="#78758C" id="svg_5" d="M47.258 31.73l20.766 6.763-37.708-12.284-14.749 34.442L49.86 46.165z"/><path fill="#A3EDBA" id="svg_6" d="M15.567 60.651L30.315 26.21 0 16.335z"/><path fill="#6699A1" id="svg_7" d="M49.86 46.165l3.326 18.445 14.838-26.117z"/><path fill="#8087E8" id="svg_8" d="M41.539 0L30.315 26.21l16.943 5.521z"/></g><g id="text-highcharts" transform="translate(128.024 51.291)" stroke="#f0f0f0"><path fill="#f0f0f0" d="M20.719 14.058H3.699v9.77a1.831 1.831 0 0 1-1.849 1.851A1.831 1.831 0 0 1 0 23.828V2.071C0 1.034.813.219 1.85.219c1.036 0 1.849.813 1.849 1.852v8.436h17.02V2.071c0-1.037.814-1.852 1.85-1.852s1.85.813 1.85 1.852v21.754a1.832 1.832 0 0 1-1.85 1.851 1.832 1.832 0 0 1-1.85-1.851v-9.767z" id="svg_2" stroke-width="0"/><path fill="#f0f0f0" d="M39.217 23.825c0 1.037-.814 1.851-1.852 1.851s-1.852-.813-1.852-1.851V2.071c0-1.037.814-1.852 1.852-1.852s1.852.813 1.852 1.852v21.754z" id="svg_3" stroke-width="0"/><path fill="#f0f0f0" d="M66.369 14.724c0-1.036.814-1.774 1.852-1.774 1.034 0 1.852.813 1.852 1.849v5.847c0 .444-.226 1.109-.595 1.479-2.367 2.369-5.549 3.773-9.176 3.773A12.915 12.915 0 0 1 47.353 12.95 12.913 12.913 0 0 1 60.302.001c3.627 0 6.809 1.405 9.176 3.771.738.74.738 1.852 0 2.592-.741.738-1.922.813-2.663.072C65.113 4.737 62.892 3.7 60.302 3.7c-5.104 0-9.249 4.144-9.249 9.25 0 5.104 4.146 9.25 9.249 9.25 2.367 0 4.441-.813 6.067-2.222v-5.254z" id="svg_4" stroke-width="0"/><path fill="#f0f0f0" d="M100.406 14.058H83.387v9.77a1.835 1.835 0 0 1-1.852 1.851 1.83 1.83 0 0 1-1.849-1.851V2.071c0-1.037.812-1.852 1.849-1.852 1.034 0 1.852.813 1.852 1.852v8.436h17.019V2.071c0-1.037.813-1.852 1.849-1.852 1.037 0 1.852.813 1.852 1.852v21.754a1.832 1.832 0 0 1-1.852 1.851 1.833 1.833 0 0 1-1.849-1.851v-9.767z" id="svg_5" stroke-width="0"/><path fill="#f0f0f0" d="M125.192 25.898a12.913 12.913 0 0 1-12.949-12.948c0-7.181 5.77-12.949 12.949-12.949 3.627 0 6.809 1.405 9.176 3.771.738.74.738 1.852 0 2.592-.741.738-1.925.813-2.666.072-1.699-1.699-3.92-2.736-6.51-2.736-5.106 0-9.249 4.144-9.249 9.25 0 5.104 4.143 9.25 9.249 9.25 2.59 0 4.884-.962 6.586-2.664.74-.741 1.849-.741 2.59 0 .738.738.738 1.85 0 2.589-2.368 2.367-5.55 3.773-9.176 3.773z" id="svg_6" stroke-width="0"/><path fill="#f0f0f0" d="M163.813 14.058h-17.02v9.77a1.832 1.832 0 0 1-1.852 1.851 1.833 1.833 0 0 1-1.85-1.851V2.071c0-1.037.813-1.852 1.85-1.852 1.035 0 1.852.813 1.852 1.852v8.436h17.02V2.071c0-1.037.813-1.852 1.853-1.852 1.034 0 1.849.813 1.849 1.852v21.754a1.831 1.831 0 0 1-1.849 1.851 1.834 1.834 0 0 1-1.853-1.851v-9.767z" id="svg_7" stroke-width="0"/><path fill="#f0f0f0" d="M191.002 1.849l10.507 20.646c.223.443.445 1.036.445 1.554 0 1.036-.668 1.628-1.702 1.628-.741 0-1.481-.222-2.001-1.258l-3.253-6.438h-13.547l-3.183 6.438c-.517 1.036-1.256 1.258-1.994 1.258-1.037 0-1.702-.593-1.702-1.628 0-.519.22-1.109.442-1.554L185.52 1.849c.668-1.405 2.002-1.628 2.74-1.628.744 0 2.074.221 2.742 1.628zm-7.773 12.58h9.988l-4.957-9.99-5.031 9.99z" id="svg_8" stroke-width="0"/><path fill="#f0f0f0" d="M222.403.369c4.441 0 8.064 3.255 8.064 7.694 0 3.923-2.813 6.884-6.511 7.549l6.731 7.104c.664.666.889 1.85.146 2.516-.736.741-2.145.521-2.886-.296l-8.729-9.176h-6.511v8.142c0 1.034-.815 1.774-1.854 1.774a1.833 1.833 0 0 1-1.85-1.851V2.219c0-1.035.814-1.85 1.85-1.85h11.55zm-9.691 3.552v8.288h9.691c2.59 0 4.367-1.776 4.367-4.146 0-2.365-1.777-4.144-4.367-4.144l-9.691.002z" id="svg_9" stroke-width="0"/><path fill="#f0f0f0" d="M247.291 3.921h-9.249c-1.033 0-1.849-.74-1.849-1.776 0-1.034.813-1.773 1.849-1.773h22.201c1.037 0 1.852.74 1.852 1.773 0 1.037-.813 1.776-1.852 1.776h-9.249v19.905a1.831 1.831 0 0 1-1.849 1.851 1.834 1.834 0 0 1-1.854-1.851V3.921z" id="svg_10" stroke-width="0"/><path fill="#f0f0f0" d="M270.968 10.359c0-9.25 5.698-10.359 9.99-10.359 1.035 0 1.85.813 1.85 1.85a1.832 1.832 0 0 1-1.85 1.851c-3.479 0-6.29.738-6.29 6.66v5.18c0 9.25-5.698 10.358-9.989 10.358-1.035 0-1.85-.813-1.85-1.85s.814-1.85 1.85-1.85c3.479 0 6.289-.74 6.289-6.66v-5.18z" id="svg_11" stroke-width="0"/><g transform="matrix(.03 0 0 .03 280 20)"><circle cx="100" cy="100" r="88.5" fill="none" stroke-width="20"/><path d="M94.6 92c5.5 0 9.5-1.1 11.9-3.2 2.4-2 3.7-5.4 3.7-10.2 0-4.7-1.3-8-3.7-10.1-2.4-2-6.4-3-11.9-3H83.4V92h11.2m-11.2 18.3v39H56.8V46.2h40.6c13.6 0 23.5 2.3 29.8 6.9 6.4 4.5 9.5 11.7 9.5 21.6 0 6.8-1.6 12.4-4.9 16.8-3.3 4.3-8.2 7.6-14.9 9.6 3.7.9 6.9 2.8 9.8 5.7 2.9 2.9 5.8 7.3 8.7 13.3l14.5 29.2h-28.3L109 123.7c-2.5-5.1-5.1-8.7-7.7-10.5-2.6-1.9-6.1-2.9-10.4-2.9h-7.5" stroke-width="0" fill="#f0f0f0"/></g></g></svg>